<?xml version="1.0" standalone="no"?>
<!DOCTYPE svg PUBLIC "-//W3C//DTD SVG 20010904//EN"
 "http://www.w3.org/TR/2001/REC-SVG-20010904/DTD/svg10.dtd">
<svg version="1.0" xmlns="http://www.w3.org/2000/svg"
 width="1024.000000pt" height="1024.000000pt" viewBox="0 0 1024.000000 1024.000000"
 preserveAspectRatio="xMidYMid meet">

<g transform="translate(0.000000,1024.000000) scale(0.100000,-0.100000)"
fill="#000000" stroke="none">
<path d="M4925 9603 c-615 -30 -1178 -175 -1720 -441 -445 -220 -770 -455
-1140 -826 -357 -358 -599 -693 -801 -1111 -352 -727 -492 -1483 -423 -2280
90 -1041 548 -1994 1316 -2735 488 -471 1113 -833 1763 -1019 408 -117 710
-159 1240 -171 333 -7 361 -9 450 -33 124 -33 246 -87 433 -191 374 -209 588
-281 675 -226 59 37 65 65 69 350 2 140 9 273 14 295 29 109 91 171 246 248
583 293 1129 749 1508 1261 464 627 745 1330 842 2106 22 181 26 772 5 940
-70 570 -205 1027 -444 1504 -291 581 -706 1080 -1213 1459 -804 602 -1831
919 -2820 870z m58 -688 c37 -8 96 -29 130 -47 l62 -33 75 32 c119 50 221 67
380 60 157 -6 273 -33 418 -95 199 -86 384 -231 483 -380 50 -76 52 -77 137
-112 197 -80 332 -209 436 -417 50 -99 76 -202 83 -323 l6 -105 49 -55 c63
-70 131 -209 164 -336 36 -133 38 -328 6 -445 -24 -90 -77 -199 -138 -287
l-44 -63 0 -127 c0 -170 -24 -285 -85 -408 -72 -144 -201 -272 -352 -348 -63
-31 -197 -76 -228 -76 -21 0 -23 -4 -27 -102 -6 -127 -30 -188 -98 -252 -78
-73 -183 -82 -277 -24 -19 11 -93 102 -179 219 -233 319 -301 388 -476 479
l-77 40 -58 -25 c-193 -86 -448 -89 -650 -8 -129 52 -252 153 -316 261 -32 53
-32 53 -72 47 -321 -51 -595 -24 -844 83 -495 214 -734 745 -566 1258 50 153
173 340 273 417 49 37 50 39 72 133 65 284 288 530 600 665 90 39 225 79 266
79 15 0 26 10 35 32 7 17 37 56 68 85 61 61 193 130 301 158 135 35 332 44
443 20z m-1173 -4450 l0 -505 263 -2 262 -3 3 -127 3 -128 -411 0 -410 0 0
635 0 635 145 0 145 0 0 -505z m980 0 l0 -505 258 -2 257 -3 3 -128 3 -127
-408 2 -408 3 0 625 c-1 344 1 628 3 633 2 4 68 7 148 7 l144 0 0 -505z m1157
240 c63 -143 137 -314 165 -380 28 -66 54 -123 58 -128 3 -4 84 168 180 383
l173 390 178 0 179 0 0 -635 0 -635 -140 0 -140 0 0 408 c0 261 -4 402 -10
392 -5 -8 -89 -189 -187 -402 l-177 -388 -61 0 -60 1 -104 227 c-58 125 -140
303 -183 397 l-78 170 0 -403 0 -402 -135 0 -135 0 0 635 0 635 181 -2 182 -3
114 -260z m-1597 -1252 c111 -30 208 -115 263 -231 31 -64 32 -72 32 -192 0
-120 -1 -128 -32 -192 -17 -37 -53 -90 -80 -119 -211 -225 -593 -165 -724 114
-78 169 -50 371 71 501 118 127 285 169 470 119z m3477 12 c86 -25 166 -99
187 -172 6 -19 -2 -24 -76 -53 -46 -18 -88 -34 -94 -37 -6 -2 -14 7 -18 20 -3
14 -22 39 -43 57 -33 29 -41 32 -89 28 -66 -6 -94 -28 -94 -74 0 -47 23 -64
152 -108 189 -65 236 -97 268 -181 18 -47 14 -138 -8 -187 -24 -54 -91 -120
-151 -150 -39 -20 -62 -23 -156 -23 -98 0 -116 3 -166 26 -76 36 -132 89 -159
150 -12 28 -20 53 -17 55 10 10 177 71 181 66 4 -3 6 -14 6 -25 0 -11 17 -36
38 -57 73 -73 212 -61 241 21 13 37 1 72 -32 94 -14 9 -82 33 -151 54 -143 43
-188 72 -223 141 -28 53 -31 151 -7 208 28 68 91 120 179 148 55 17 171 17
232 -1z m-5118 -21 c65 -19 136 -81 164 -143 28 -65 27 -179 -3 -249 -29 -68
-96 -127 -165 -148 -29 -8 -98 -16 -154 -17 l-101 -2 0 -142 0 -143 -100 0
-100 0 0 430 0 430 203 0 c156 0 216 -4 256 -16z m806 -12 c94 -43 141 -109
151 -210 10 -89 -16 -165 -74 -222 -26 -25 -56 -50 -67 -56 -19 -11 -15 -20
78 -171 53 -89 97 -163 97 -167 0 -3 -49 -6 -109 -6 l-110 0 -84 153 -84 152
-46 3 -47 3 0 -155 0 -156 -100 0 -100 0 0 431 0 430 223 -3 c207 -3 225 -5
272 -26z m1615 -224 c57 -139 105 -261 108 -270 2 -10 7 -18 11 -18 3 0 23 44
44 98 21 53 70 175 109 270 l70 172 124 0 124 0 0 -430 0 -430 -90 0 -90 0 -2
279 -3 279 -120 -274 -120 -274 -46 0 -45 0 -120 271 -119 271 -3 -276 -2
-276 -90 0 -90 0 0 430 0 430 123 0 124 0 103 -252z m1217 237 c71 -21 123
-63 158 -126 26 -48 30 -63 29 -139 0 -97 -22 -155 -77 -207 -67 -65 -186 -99
-314 -91 l-53 3 0 -142 0 -143 -100 0 -100 0 0 430 0 430 203 0 c151 0 216 -4
254 -15z m963 -70 l0 -85 -120 0 -120 0 0 -345 0 -345 -100 0 -100 0 0 346 0
345 -115 -2 c-63 -1 -115 1 -115 5 0 3 0 42 0 86 l0 80 335 0 335 0 0 -85z"/>
<path d="M5500 8684 c-120 -23 -230 -85 -337 -187 -135 -130 -214 -266 -247
-429 -11 -55 -16 -134 -16 -273 0 -216 -6 -242 -60 -270 -66 -34 -127 -10
-159 64 -19 46 -21 67 -21 258 0 163 4 227 19 298 33 162 112 315 231 448 29
32 50 61 47 64 -4 3 -57 8 -119 10 -227 10 -410 -64 -513 -206 l-33 -45 -131
-32 c-380 -93 -626 -334 -666 -652 -7 -50 -10 -55 -73 -106 -215 -172 -327
-416 -309 -679 26 -378 291 -654 704 -733 107 -21 319 -23 419 -5 l71 12 6
132 c5 148 21 209 88 337 186 359 674 642 1152 667 l117 6 38 71 c75 143 229
264 383 301 126 29 308 12 387 -37 43 -26 72 -73 72 -116 0 -25 -9 -43 -34
-68 -39 -39 -79 -43 -181 -19 -82 20 -131 19 -206 -5 -135 -43 -213 -133 -244
-282 -3 -15 -16 -40 -29 -55 l-24 -28 -164 -1 c-112 0 -190 -6 -250 -17 -322
-64 -617 -243 -766 -465 -123 -184 -145 -379 -62 -549 78 -158 308 -263 514
-235 110 14 223 59 327 129 46 31 113 76 148 99 90 61 215 120 291 139 51 13
137 18 395 21 381 6 431 13 563 79 211 107 334 267 363 470 26 190 -61 441
-194 560 l-51 47 3 107 c4 170 -38 303 -138 427 -75 94 -228 191 -340 215 -50
11 -52 12 -115 108 -134 203 -314 340 -526 401 -73 21 -270 35 -330 24z m562
-381 c83 -38 103 -117 43 -177 -39 -39 -62 -45 -120 -33 -178 39 -398 -85
-489 -275 -19 -40 -38 -91 -42 -113 -11 -59 -60 -105 -113 -105 -80 0 -131 49
-131 125 0 45 43 175 77 235 100 174 255 298 436 351 89 27 273 22 339 -8z
m-1821 -262 c23 -24 29 -38 29 -74 0 -60 -26 -90 -115 -132 -157 -75 -225
-212 -179 -364 31 -105 106 -156 269 -181 168 -26 194 -43 203 -129 4 -45 2
-53 -25 -80 -45 -44 -100 -56 -205 -42 -105 14 -212 48 -277 90 -61 40 -142
125 -170 179 -92 181 -54 446 86 603 84 92 207 157 301 158 46 1 58 -3 83 -28z
m2255 -1039 c76 -61 48 -172 -68 -277 -105 -95 -223 -133 -419 -134 -37 -1
-122 -10 -189 -22 -249 -42 -444 -118 -573 -224 -55 -44 -75 -55 -105 -55 -76
0 -134 69 -117 138 33 134 294 277 638 351 120 26 327 51 422 51 62 0 77 4
119 30 26 17 76 60 111 95 61 62 65 65 112 65 30 0 56 -7 69 -18z m-2767 -109
c75 -60 184 -115 282 -142 83 -23 114 -50 125 -106 9 -48 -11 -90 -53 -116
-29 -18 -44 -21 -92 -16 -127 14 -323 103 -409 187 -80 76 -98 130 -67 190 41
79 119 80 214 3z"/>
<path d="M6915 6097 c-33 -16 -103 -41 -155 -55 -91 -25 -110 -26 -460 -32
-355 -6 -366 -6 -415 -29 -65 -31 -205 -113 -205 -121 0 -4 32 -28 70 -54 119
-82 226 -196 385 -413 81 -112 151 -203 155 -203 15 0 19 47 13 174 l-6 131
29 31 c26 27 41 32 133 48 267 43 430 165 501 370 22 64 38 187 24 185 -5 -1
-36 -15 -69 -32z"/>
<path d="M4115 3281 c-95 -43 -154 -157 -141 -273 15 -152 107 -248 236 -248
90 0 167 49 213 135 17 32 21 57 21 130 0 78 -3 97 -27 141 -60 116 -191 166
-302 115z"/>
<path d="M2450 3175 l0 -125 75 0 c43 0 90 6 110 14 39 17 65 60 65 111 0 85
-57 125 -180 125 l-70 0 0 -125z"/>
<path d="M3220 3190 l0 -110 86 0 c126 0 175 38 161 126 -11 69 -58 94 -179
94 l-68 0 0 -110z"/>
<path d="M6090 3175 l0 -127 90 4 c105 5 137 22 158 83 10 32 10 46 0 78 -21
64 -54 81 -159 85 l-89 4 0 -127z"/>
</g>
</svg>
